<svg width="24" height="24" viewBox="0 0 24 24" fill="none" xmlns="http://www.w3.org/2000/svg">
<path d="M22.46 6.00024C21.69 6.35024 20.86 6.58024 20 6.69024C20.88 6.16024 21.56 5.32024 21.88 4.31024C21.05 4.81024 20.13 5.16024 19.16 5.36024C18.37 4.50024 17.26 4.00024 16 4.00024C13.65 4.00024 11.73 5.92024 11.73 8.29024C11.73 8.63024 11.77 8.96024 11.84 9.27024C8.28001 9.09024 5.11001 7.38024 3.00001 4.79024C2.63001 5.42024 2.42001 6.16024 2.42001 6.94024C2.42001 8.43024 3.17001 9.75024 4.33001 10.5002C3.62001 10.5002 2.96001 10.3002 2.38001 10.0002V10.0302C2.38001 12.1102 3.86001 13.8502 5.82001 14.2402C5.19074 14.4125 4.5301 14.4364 3.89001 14.3102C4.16162 15.1627 4.69355 15.9087 5.41103 16.4432C6.1285 16.9777 6.99546 17.2739 7.89001 17.2902C6.37364 18.4907 4.494 19.1396 2.56001 19.1302C2.22001 19.1302 1.88001 19.1102 1.54001 19.0702C3.44001 20.2902 5.70001 21.0002 8.12001 21.0002C16 21.0002 20.33 14.4602 20.33 8.79024C20.33 8.60024 20.33 8.42024 20.32 8.23024C21.16 7.63024 21.88 6.87024 22.46 6.00024Z" fill="#072125"/>
</svg>
