<svg width="24" height="24" viewBox="0 0 24 24" fill="none" xmlns="http://www.w3.org/2000/svg">
<path d="M7.8 2.00024H16.2C19.4 2.00024 22 4.60024 22 7.80024V16.2002C22 17.7385 21.3889 19.2138 20.3012 20.3015C19.2135 21.3892 17.7383 22.0002 16.2 22.0002H7.8C4.6 22.0002 2 19.4002 2 16.2002V7.80024C2 6.26199 2.61107 4.78674 3.69878 3.69902C4.78649 2.61131 6.26174 2.00024 7.8 2.00024ZM7.6 4.00024C6.64522 4.00024 5.72955 4.37953 5.05442 5.05466C4.37928 5.72979 4 6.64546 4 7.60024V16.4002C4 18.3902 5.61 20.0002 7.6 20.0002H16.4C17.3548 20.0002 18.2705 19.621 18.9456 18.9458C19.6207 18.2707 20 17.355 20 16.4002V7.60024C20 5.61024 18.39 4.00024 16.4 4.00024H7.6ZM17.25 5.50024C17.5815 5.50024 17.8995 5.63194 18.1339 5.86636C18.3683 6.10078 18.5 6.41872 18.5 6.75024C18.5 7.08176 18.3683 7.39971 18.1339 7.63413C17.8995 7.86855 17.5815 8.00024 17.25 8.00024C16.9185 8.00024 16.6005 7.86855 16.3661 7.63413C16.1317 7.39971 16 7.08176 16 6.75024C16 6.41872 16.1317 6.10078 16.3661 5.86636C16.6005 5.63194 16.9185 5.50024 17.25 5.50024ZM12 7.00024C13.3261 7.00024 14.5979 7.52703 15.5355 8.46471C16.4732 9.40239 17 10.6742 17 12.0002C17 13.3263 16.4732 14.5981 15.5355 15.5358C14.5979 16.4735 13.3261 17.0002 12 17.0002C10.6739 17.0002 9.40215 16.4735 8.46447 15.5358C7.52678 14.5981 7 13.3263 7 12.0002C7 10.6742 7.52678 9.40239 8.46447 8.46471C9.40215 7.52703 10.6739 7.00024 12 7.00024ZM12 9.00024C11.2044 9.00024 10.4413 9.31631 9.87868 9.87892C9.31607 10.4415 9 11.2046 9 12.0002C9 12.7959 9.31607 13.559 9.87868 14.1216C10.4413 14.6842 11.2044 15.0002 12 15.0002C12.7956 15.0002 13.5587 14.6842 14.1213 14.1216C14.6839 13.559 15 12.7959 15 12.0002C15 11.2046 14.6839 10.4415 14.1213 9.87892C13.5587 9.31631 12.7956 9.00024 12 9.00024Z" fill="#072125"/>
</svg>
