<svg width="24" height="24" viewBox="0 0 24 24" fill="none" xmlns="http://www.w3.org/2000/svg">
<path d="M12 2.04022C6.5 2.04022 2 6.53022 2 12.0602C2 17.0602 5.66 21.2102 10.44 21.9602V14.9602H7.9V12.0602H10.44V9.85022C10.44 7.34022 11.93 5.96022 14.22 5.96022C15.31 5.96022 16.45 6.15022 16.45 6.15022V8.62022H15.19C13.95 8.62022 13.56 9.39022 13.56 10.1802V12.0602H16.34L15.89 14.9602H13.56V21.9602C15.9164 21.5881 18.0622 20.3857 19.6099 18.5703C21.1576 16.7548 22.0054 14.4459 22 12.0602C22 6.53022 17.5 2.04022 12 2.04022Z" fill="#072125"/>
</svg>
